<?xml version="1.0" encoding="utf-8"?>
<!-- Generator: Adobe Illustrator 17.0.0, SVG Export Plug-In . SVG Version: 6.00 Build 0)  -->
<!DOCTYPE svg PUBLIC "-//W3C//DTD SVG 1.1//EN" "http://www.w3.org/Graphics/SVG/1.1/DTD/svg11.dtd">
<svg version="1.1" id="Layer_1" xmlns="http://www.w3.org/2000/svg" xmlns:xlink="http://www.w3.org/1999/xlink" x="0px" y="0px"
	 width="7.653px" height="5.333px" viewBox="0 0 7.653 5.333" enable-background="new 0 0 7.653 5.333" xml:space="preserve">
<path fill="#0091D2" d="M7.581,1.426L4.203,4.804C4.159,4.847,4.094,4.876,4.036,4.876S3.913,4.847,3.87,4.804L0.492,1.426
	C0.448,1.383,0.419,1.318,0.419,1.26s0.029-0.123,0.072-0.167L0.854,0.73c0.043-0.043,0.101-0.072,0.167-0.072
	c0.058,0,0.123,0.029,0.167,0.072l2.849,2.849L6.885,0.73c0.043-0.043,0.108-0.072,0.167-0.072S7.174,0.687,7.218,0.73l0.363,0.363
	C7.624,1.137,7.653,1.201,7.653,1.26S7.624,1.383,7.581,1.426z"/>
</svg>
