<?xml version="1.0" encoding="utf-8"?>
<!-- Generator: Adobe Illustrator 17.0.0, SVG Export Plug-In . SVG Version: 6.00 Build 0)  -->
<!DOCTYPE svg PUBLIC "-//W3C//DTD SVG 1.1//EN" "http://www.w3.org/Graphics/SVG/1.1/DTD/svg11.dtd">
<svg version="1.1" id="Layer_1" xmlns="http://www.w3.org/2000/svg" xmlns:xlink="http://www.w3.org/1999/xlink" x="0px" y="0px"
	 width="11.483px" height="11.917px" viewBox="0 0 11.483 11.917" enable-background="new 0 0 11.483 11.917" xml:space="preserve">
<path fill="#C9156C" d="M5.742,11.525c-3.073,0-5.566-2.493-5.566-5.566s2.493-5.566,5.566-5.566s5.566,2.493,5.566,5.566
	S8.815,11.525,5.742,11.525z M8.365,7.27L7.053,5.958l1.312-1.312C8.452,4.559,8.502,4.444,8.502,4.32
	c0-0.123-0.05-0.246-0.138-0.333L7.712,3.335c-0.087-0.087-0.21-0.138-0.333-0.138S7.14,3.247,7.053,3.335L5.742,4.646L4.429,3.335
	C4.342,3.247,4.227,3.197,4.103,3.197c-0.123,0-0.246,0.05-0.333,0.138L3.117,3.987C3.031,4.074,2.98,4.197,2.98,4.32
	c0,0.124,0.051,0.239,0.138,0.326l1.312,1.312L3.117,7.27C3.031,7.357,2.98,7.473,2.98,7.597c0,0.123,0.051,0.246,0.138,0.333
	L3.77,8.582C3.857,8.669,3.98,8.72,4.103,8.72c0.124,0,0.239-0.05,0.326-0.138L5.742,7.27l1.312,1.312
	C7.14,8.669,7.256,8.72,7.379,8.72s0.246-0.05,0.333-0.138L8.365,7.93c0.088-0.087,0.138-0.21,0.138-0.333
	C8.502,7.473,8.452,7.357,8.365,7.27z"/>
</svg>
