<?xml version="1.0" encoding="utf-8"?>
<!-- Generator: Adobe Illustrator 17.0.0, SVG Export Plug-In . SVG Version: 6.00 Build 0)  -->
<!DOCTYPE svg PUBLIC "-//W3C//DTD SVG 1.1//EN" "http://www.w3.org/Graphics/SVG/1.1/DTD/svg11.dtd">
<svg version="1.1" id="Layer_1" xmlns="http://www.w3.org/2000/svg" xmlns:xlink="http://www.w3.org/1999/xlink" x="0px" y="0px"
	 width="11.483px" height="11.917px" viewBox="0 0 11.483 11.917" enable-background="new 0 0 11.483 11.917" xml:space="preserve">
<path fill="#CCCC00" d="M5.742,11.57c-3.073,0-5.566-2.493-5.566-5.566s2.493-5.566,5.566-5.566s5.566,2.493,5.566,5.566
	S8.815,11.57,5.742,11.57z M9.351,4.496L8.692,3.844C8.605,3.757,8.489,3.706,8.366,3.706s-0.239,0.05-0.326,0.138l-2.957,2.95
	L3.445,5.155C3.357,5.069,3.242,5.018,3.118,5.018c-0.124,0-0.239,0.051-0.326,0.138l-0.66,0.652c-0.087,0.087-0.13,0.21-0.13,0.333
	s0.043,0.239,0.13,0.326l2.624,2.624c0.087,0.087,0.21,0.138,0.326,0.138c0.123,0,0.246-0.05,0.333-0.138l3.936-3.936
	c0.087-0.087,0.131-0.203,0.131-0.326C9.482,4.706,9.438,4.583,9.351,4.496z"/>
</svg>
