<?xml version="1.0" encoding="utf-8"?>
<!-- Generator: Adobe Illustrator 17.1.0, SVG Export Plug-In . SVG Version: 6.00 Build 0)  -->
<!DOCTYPE svg PUBLIC "-//W3C//DTD SVG 1.1//EN" "http://www.w3.org/Graphics/SVG/1.1/DTD/svg11.dtd">
<svg version="1.1" id="Layer_1" xmlns="http://www.w3.org/2000/svg" xmlns:xlink="http://www.w3.org/1999/xlink" x="0px" y="0px"
	 viewBox="0 0 28 28" enable-background="new 0 0 28 28" xml:space="preserve">
<g>
	<path fill="#FFFFFF" d="M7.3,16.4c1.3,0,2.4-1.1,2.4-2.4s-1.1-2.4-2.4-2.4C6,11.6,5,12.7,5,14S6,16.4,7.3,16.4"/>
	<path fill="#FFFFFF" d="M14,16.4c1.3,0,2.4-1.1,2.4-2.4s-1.1-2.4-2.4-2.4c-1.3,0-2.4,1.1-2.4,2.4S12.7,16.4,14,16.4"/>
	<path fill="#FFFFFF" d="M20.7,16.4c1.3,0,2.4-1.1,2.4-2.4s-1.1-2.4-2.4-2.4c-1.3,0-2.4,1.1-2.4,2.4S19.3,16.4,20.7,16.4"/>
	<circle fill="none" stroke="#FFFFFF" cx="14" cy="14" r="13.5"/>
</g>
</svg>
