<?xml version="1.0" encoding="utf-8"?>
<!-- Generator: Adobe Illustrator 17.1.0, SVG Export Plug-In . SVG Version: 6.00 Build 0)  -->
<!DOCTYPE svg PUBLIC "-//W3C//DTD SVG 1.1//EN" "http://www.w3.org/Graphics/SVG/1.1/DTD/svg11.dtd">
<svg version="1.1" id="Layer_1" xmlns="http://www.w3.org/2000/svg" xmlns:xlink="http://www.w3.org/1999/xlink" x="0px" y="0px"
	 viewBox="0 0 28 28" enable-background="new 0 0 28 28" xml:space="preserve">
<g>
	<path fill="#FFFFFF" d="M9.3,7.8c0.1,1.1,0.3,2.3,0.4,3.6c0.1,0.5,0.2,1,0.3,1.4C6.9,9.3,7.8,7.5,9.3,7.8 M17.9,12.9
		c0.1-0.5,0.2-0.9,0.3-1.4c0.2-1.3,0.3-2.5,0.4-3.6C20.2,7.5,21.1,9.3,17.9,12.9 M15.2,16.9C15.2,16.9,15.2,16.9,15.2,16.9
		c0.9-0.5,1.7-1.5,2.3-2.8c5.3-4.4,3.1-7.9,1.3-7.3C18.9,5.7,18.9,5,18.9,5H9.1c0,0,0.1,0.7,0.2,1.8c-1.8-0.6-4,2.9,1.3,7.3
		c0.6,1.3,1.4,2.3,2.3,2.8c0,0,0,0,0,0c0.5,0.3,0.5,1,0.5,1v1.6c0,2.6-1.9,2.5-1.9,2.5h-0.3V23h5.7v-1.1h-0.3c0,0-1.9,0.1-1.9-2.5
		v-1.6C14.7,17.8,14.7,17.2,15.2,16.9"/>
	<circle fill="none" stroke="#FFFFFF" cx="14" cy="14" r="13.5"/>
</g>
</svg>
