<?xml version="1.0" encoding="utf-8"?>
<!-- Generator: Adobe Illustrator 19.0.0, SVG Export Plug-In . SVG Version: 6.00 Build 0)  -->
<svg version="1.1" id="Layer_1" xmlns="http://www.w3.org/2000/svg" xmlns:xlink="http://www.w3.org/1999/xlink" x="0px" y="0px"
	 viewBox="0 0 27 27" style="enable-background:new 0 0 27 27;" xml:space="preserve">
<style type="text/css">
	.st0{fill:#FFFFFF;}
	.st1{fill:none;}
	.st2{clip-path:url(#SVGID_2_);fill:#6E6E6E;}
</style>
<circle id="XMLID_9_" class="st0" cx="13.5" cy="13.5" r="13.5"/>
<circle id="XMLID_1_" class="st1" cx="13.5" cy="13.5" r="13.5"/>
<g>
	<defs>
		<circle id="SVGID_1_" cx="13.5" cy="13.5" r="13.5"/>
	</defs>
	<clipPath id="SVGID_2_">
		<use xlink:href="#SVGID_1_"  style="overflow:visible;"/>
	</clipPath>
	<path id="XMLID_2_" class="st2" d="M0.8,27v-2.7c0,0,0.2-1.9,4-3c0,0,4-1.1,5.6-3c0,0,0.6-1,0.2-2c0,0-2.2-4.5-2.1-5.9
		c0,0-0.4-2.4,0.3-4.3c0,0,1.1-3.4,4.8-3.2c0,0,3.4-0.2,4.8,3.6c0,0,0.9,3.4-0.5,6.4c0,0-1.6,2.9-1.6,4.1c0,0-0.2,1.3,1.2,2.1
		c0,0,2.1,1.3,5.3,2.3c0,0,3,1.1,3.4,3.1V27H0.8z"/>
</g>
</svg>
