<?xml version="1.0" encoding="utf-8"?>
<!-- Generator: Adobe Illustrator 17.0.0, SVG Export Plug-In . SVG Version: 6.00 Build 0)  -->
<!DOCTYPE svg PUBLIC "-//W3C//DTD SVG 1.1//EN" "http://www.w3.org/Graphics/SVG/1.1/DTD/svg11.dtd">
<svg version="1.1" id="Layer_1" xmlns="http://www.w3.org/2000/svg" xmlns:xlink="http://www.w3.org/1999/xlink" x="0px" y="0px"
	 width="102.145px" height="97.643px" viewBox="0 0 102.145 97.643" enable-background="new 0 0 102.145 97.643"
	 xml:space="preserve">
<g>
	<g opacity="0.6">
		<rect x="-0.333" y="1.976" width="100" height="96"/>
	</g>
	<g>
		<rect x="1.667" y="-0.024" fill="#FFFFFF" width="100" height="96"/>
	</g>
</g>
<g>
	<path fill="#C9DA2A" d="M39.427,48.489c-1.851,0.48-3.743,1.004-5.679,1.567c-3.881,2.285-7.57,4.961-10.886,7.972
		c-0.399,0.363-0.812,0.596-1.213,0.721c0.211-0.048,0.433-0.118,0.663-0.213c4.969-2.049,9.649-3.88,14.079-5.439
		C37.399,51.519,38.412,49.978,39.427,48.489 M76.142,47.349c0.163,0.683,0.322,1.384,0.477,2.107c2.36,0.881,4.64,2.041,6.86,3.506
		c0.384,0.254,0.876,0.635,1.278,0.635c0.16,0,0.306-0.06,0.425-0.212c0.27-0.343,0.086-0.791-0.812-1.477
		C81.802,49.944,79.063,48.441,76.142,47.349 M66.965,45.271c-2.527,0.408-5.067,1.166-7.577,2.208
		c1.515-0.137,2.998-0.207,4.449-0.207c3.787,0,7.362,0.479,10.772,1.507c-0.182-0.735-0.367-1.447-0.555-2.13
		C71.799,45.972,69.438,45.52,66.965,45.271 M57.992,45.188c-3.503,0.243-7.198,0.781-11.095,1.568
		c-0.752,1.187-1.504,2.415-2.259,3.682c1.642-0.474,3.245-0.899,4.817-1.273C52.398,47.516,55.247,46.192,57.992,45.188"/>
	<path fill="#FFC10E" d="M43.794,42.422c-7.995,2.632-15.959,6.685-22.83,11.584c-0.97,0.692-1.534,1.412-1.794,2.08
		c0.386-0.928,1.328-1.829,2.971-2.376c4.031-1.346,7.898-2.573,11.608-3.654c2.322-1.367,4.714-2.594,7.136-3.67
		C41.855,45.011,42.826,43.687,43.794,42.422 M74.418,41.241c0.216,0.646,0.428,1.317,0.636,2.016
		c0.026,0.011,0.053,0.024,0.078,0.034c2.081,0.436,4.028,1.159,5.827,2.165c0,0,0.276,0.151,0.539,0.398
		c-0.01-0.01-0.021-0.02-0.031-0.03c-0.147-0.142-0.27-0.255-0.27-0.255C79.249,43.699,76.963,42.271,74.418,41.241 M62.402,39.135
		c-3.561,0-7.313,0.44-11.136,1.255c-0.705,0.932-1.413,1.918-2.124,2.954c4.951-1.456,9.85-2.233,14.379-2.233
		c3.315,0,6.431,0.416,9.222,1.288c-0.245-0.703-0.494-1.367-0.747-1.997C69.044,39.538,65.81,39.135,62.402,39.135"/>
	<path fill="#C7B02F" d="M33.748,50.056c-3.71,1.081-7.577,2.308-11.608,3.654c-1.642,0.547-2.584,1.448-2.971,2.376
		c-0.384,0.989-0.103,1.863,0.514,2.354c0.329,0.242,0.762,0.389,1.277,0.389c0.216,0,0.445-0.025,0.688-0.08
		c0.401-0.126,0.814-0.358,1.213-0.721C26.178,55.017,29.867,52.341,33.748,50.056"/>
	<path fill="#EC2984" d="M59.389,47.479c-3.159,0.285-6.462,0.858-9.934,1.685c-2.095,1.173-4.236,2.509-6.418,4.011
		c-2.115,3.681-4.23,7.594-6.315,11.541l0-0.001c-0.003,0-0.307,0.543-0.487,0.807C42.591,57.897,50.825,51.033,59.389,47.479
		 M70.201,42.797c-3.755,0-7.847,0.791-12.21,2.39c1.413-0.099,2.794-0.15,4.145-0.15c1.655,0,3.265,0.076,4.829,0.233
		c1.409-0.228,2.813-0.347,4.207-0.347c0.812,0,1.622,0.041,2.425,0.124c-0.219-0.733-0.442-1.436-0.667-2.105
		C72.042,42.846,71.132,42.797,70.201,42.797"/>
	<path fill="#C0352E" d="M62.137,45.038c-1.351,0-2.732,0.051-4.145,0.15c-2.744,1.005-5.594,2.329-8.537,3.977
		c3.472-0.827,6.776-1.4,9.935-1.685c2.51-1.042,5.049-1.799,7.577-2.208C65.401,45.114,63.792,45.038,62.137,45.038"/>
	<path fill="#EC2984" d="M75.058,43.277c0.199,0.668,0.392,1.36,0.583,2.078c1.687,0.334,3.347,0.868,4.969,1.624
		c0.01,0.005,0.487,0.212,0.837,0.212c0.035,0,0.069-0.002,0.1-0.007c0.097-0.013,0.185-0.038,0.255-0.089
		c-0.093,0.063-0.22,0.085-0.35,0.085c-0.104,0-0.209-0.014-0.3-0.032c-0.413-0.082-0.668-0.301-0.668-0.301
		c-1.523-1.483-3.326-2.662-5.351-3.556C75.107,43.287,75.083,43.281,75.058,43.277"/>
	<path fill="#ED3024" d="M75.132,43.291c2.025,0.894,3.828,2.073,5.351,3.556c0,0,0.255,0.219,0.668,0.301
		c0.091,0.018,0.196,0.032,0.3,0.032c0.13,0,0.257-0.022,0.35-0.085c0.083-0.061,0.14-0.159,0.154-0.326
		c0.011-0.128-0.012-0.251-0.059-0.368c-0.087-0.208-0.246-0.396-0.4-0.548c-0.263-0.246-0.539-0.398-0.539-0.398
		C79.159,44.45,77.212,43.727,75.132,43.291"/>
	<path fill="#009ADE" d="M44.637,50.437c-2.65,0.765-5.398,1.656-8.247,2.66c-2.385,3.73-4.743,7.676-7.042,11.691
		c0,0-0.098,0.179-0.193,0.444c0.044-0.112,0.097-0.227,0.158-0.342c0.256-0.485,0.573-1.071,1.387-1.816
		c4.225-3.858,8.349-7.155,12.336-9.899C43.57,52.247,44.104,51.332,44.637,50.437 M49.142,43.344
		c-2.754,0.81-5.526,1.83-8.258,3.043c-0.485,0.688-0.972,1.39-1.458,2.102c2.57-0.666,5.058-1.247,7.47-1.734
		C47.646,45.571,48.396,44.431,49.142,43.344 M72.743,42.399c0.063,0.18,0.124,0.36,0.187,0.544c0.724,0.079,1.433,0.19,2.128,0.333
		c-0.001-0.004-0.004-0.015-0.005-0.02C74.311,42.933,73.541,42.647,72.743,42.399 M62.564,28c-5.681,0-12.182,5.824-18.77,14.422
		c2.499-0.822,5-1.506,7.472-2.032c4.181-5.526,8.235-9.085,11.951-9.085c3.227,0,6.2,2.685,8.779,9.097
		c0.83,0.243,1.638,0.523,2.422,0.84C71.274,31.863,67.191,28,62.564,28"/>
	<path fill="#00994E" d="M46.896,46.755c-2.412,0.487-4.9,1.068-7.47,1.734c-1.015,1.489-2.028,3.03-3.036,4.608
		c2.849-1.003,5.597-1.895,8.247-2.66C45.392,49.17,46.144,47.942,46.896,46.755"/>
	<path fill="#00844A" d="M71.996,40.402c0.253,0.63,0.502,1.294,0.747,1.997c0.798,0.249,1.568,0.534,2.31,0.858
		c-0.208-0.699-0.419-1.37-0.636-2.015C73.635,40.925,72.826,40.645,71.996,40.402 M51.266,40.39
		c-2.472,0.526-4.973,1.21-7.472,2.032c-0.969,1.265-1.939,2.589-2.91,3.964c2.732-1.213,5.504-2.233,8.258-3.043
		C49.853,42.308,50.561,41.321,51.266,40.39"/>
	<path fill="#009ADE" d="M74.61,48.779c0.581,2.35,1.133,4.964,1.654,7.865c0,0,0.049,0.407,0.21,0.648
		c0.138,0.205,0.348,0.374,0.637,0.374c0.087,0,0.182-0.015,0.284-0.05c0.728-0.246,0.494-1.282,0.494-1.282
		c-0.391-2.472-0.815-4.765-1.27-6.878C75.956,49.209,75.286,48.983,74.61,48.779 M73.598,45.048
		c0.155,0.519,0.306,1.049,0.457,1.601c0.706,0.211,1.401,0.444,2.087,0.7c-0.164-0.687-0.33-1.348-0.501-1.994
		C74.963,45.22,74.283,45.118,73.598,45.048"/>
	<path fill="#00994E" d="M74.055,46.649c0.187,0.683,0.373,1.396,0.555,2.13c0.676,0.205,1.346,0.43,2.009,0.677
		c-0.155-0.722-0.314-1.424-0.477-2.107C75.456,47.093,74.761,46.86,74.055,46.649"/>
	<path fill="#2C388A" d="M43.036,53.175c-3.987,2.744-8.111,6.041-12.336,9.899c-0.814,0.744-1.131,1.331-1.387,1.816
		c-0.061,0.115-0.114,0.23-0.158,0.342c-0.066,0.184-0.131,0.41-0.164,0.648c-0.015,0.107-0.021,0.217-0.017,0.327
		c0.015,0.407,0.157,0.762,0.404,1.039c0.084,0.093,0.183,0.181,0.298,0.261c0,0,0.001,0.001,0.002,0.001
		c0.001,0.001,0.002,0.002,0.003,0.002c0.036,0.024,0.074,0.048,0.112,0.069c0.216,0.124,0.465,0.223,0.736,0.294
		c0.268,0.066,0.577,0.108,0.932,0.121C31.528,67.999,31.594,68,31.659,68c0.106,0,0.211-0.003,0.315-0.01
		c0.653-0.05,1.349-0.23,2.025-0.563c0.828-0.427,1.455-1.016,1.89-1.494c0.063-0.072,0.126-0.144,0.187-0.219
		c0.052-0.063,0.106-0.128,0.159-0.191c0.18-0.264,0.484-0.807,0.487-0.807v0.001C38.807,60.769,40.921,56.856,43.036,53.175
		 M72.931,42.943c0.226,0.669,0.449,1.372,0.667,2.105c0.685,0.071,1.365,0.172,2.043,0.307c-0.19-0.718-0.383-1.41-0.582-2.078
		C74.363,43.133,73.655,43.022,72.931,42.943"/>
	<path fill="#6D6D66" d="M50.287,67.651c-1.665,0-2.387-1.132-2.387-2.42v-4.499h-0.87v-1.567h0.87v-1.012l2.299-1.554v2.566h1.223
		v1.567h-1.223v4.313c0,0.636,0.221,0.977,0.737,0.977c0.191,0,0.295-0.031,0.486-0.093v1.489
		C51.231,67.511,50.818,67.651,50.287,67.651"/>
	<path fill="#6D6D66" d="M64.351,67.526v-5.848c0-0.589-0.25-1.163-1.179-1.163c-0.457,0-0.707,0.077-0.972,0.17v6.841H59.9V59.63
		c0.796-0.372,1.916-0.62,3.331-0.62c2.52,0,3.419,1.132,3.419,2.652v5.864H64.351z"/>
	<path fill="#6D6D66" d="M72.425,67.526v-5.848c0-0.589-0.251-1.163-1.179-1.163c-0.456,0-0.707,0.077-0.973,0.17v6.841h-2.299
		V59.63c0.796-0.372,1.916-0.62,3.331-0.62c2.52,0,3.419,1.132,3.419,2.652v5.864H72.425z"/>
	<rect x="76.056" y="59.165" fill="#6D6D66" width="2.299" height="8.361"/>
	<path fill="#6D6D66" d="M81.577,67.666c-0.987,0-1.87-0.264-2.364-0.605l0.598-1.536c0.299,0.248,0.853,0.481,1.436,0.481
		c0.599,0,1.003-0.388,1.003-0.916c0-0.558-0.285-0.868-1.032-1.179c-1.481-0.605-1.81-1.458-1.81-2.327
		c0-1.427,1.077-2.575,2.692-2.575c1.002,0,1.69,0.202,2.319,0.605l-0.568,1.381c-0.24-0.202-0.703-0.435-1.226-0.435
		c-0.614,0-0.928,0.388-0.928,0.869c0,0.559,0.404,0.87,1.032,1.148c1.556,0.682,1.915,1.474,1.915,2.451
		C84.644,66.487,83.492,67.666,81.577,67.666"/>
	<path fill="#6D6D66" d="M58.889,63.478l-0.017,0.366l-4.867-0.001c0,0.608,0.117,2.179,1.996,2.179c0.943,0,1.661-0.217,2.094-0.45
		l0.524,1.505c-0.628,0.326-1.526,0.605-2.887,0.605c-2.468,0-3.889-1.691-3.889-4.359c0-2.621,1.317-4.312,3.635-4.312
		C57.812,59.01,58.994,60.654,58.889,63.478 M55.478,60.476c-0.872,0-1.444,0.68-1.483,2.11h2.795
		C56.791,61.096,56.331,60.476,55.478,60.476"/>
</g>
</svg>
