<?xml version="1.0" encoding="utf-8"?>
<!-- Generator: Adobe Illustrator 17.0.0, SVG Export Plug-In . SVG Version: 6.00 Build 0)  -->
<!DOCTYPE svg PUBLIC "-//W3C//DTD SVG 1.1//EN" "http://www.w3.org/Graphics/SVG/1.1/DTD/svg11.dtd">
<svg version="1.1" id="Layer_1" xmlns="http://www.w3.org/2000/svg" xmlns:xlink="http://www.w3.org/1999/xlink" x="0px" y="0px"
	 width="13.625px" height="13.75px" viewBox="0 0 13.625 13.75" enable-background="new 0 0 13.625 13.75" xml:space="preserve">
<path fill="#6E6E6E" d="M10.899,0.448l2.374,2.387c0.071,0.071,0.106,0.153,0.106,0.246c0,0.094-0.036,0.172-0.106,0.233
	l-3.56,3.573l3.56,3.573c0.071,0.063,0.106,0.141,0.106,0.233c0,0.094-0.036,0.176-0.106,0.247l-2.374,2.373
	c-0.071,0.071-0.153,0.106-0.247,0.106s-0.171-0.035-0.233-0.106l-3.573-3.56l-3.573,3.56c-0.063,0.071-0.14,0.106-0.233,0.106
	s-0.176-0.035-0.247-0.106l-2.374-2.373c-0.071-0.071-0.106-0.153-0.106-0.247c0-0.093,0.035-0.171,0.106-0.233l3.56-3.573
	l-3.56-3.573c-0.071-0.062-0.106-0.14-0.106-0.233c0-0.093,0.035-0.175,0.106-0.246l2.374-2.374c0.071-0.07,0.153-0.106,0.247-0.106
	S3.21,0.39,3.272,0.461l3.573,3.561l3.573-3.573c0.062-0.063,0.14-0.094,0.233-0.094S10.828,0.385,10.899,0.448z"/>
</svg>
