<?xml version="1.0" encoding="utf-8"?>
<!-- Generator: Adobe Illustrator 17.0.0, SVG Export Plug-In . SVG Version: 6.00 Build 0)  -->
<!DOCTYPE svg PUBLIC "-//W3C//DTD SVG 1.1//EN" "http://www.w3.org/Graphics/SVG/1.1/DTD/svg11.dtd">
<svg version="1.1" id="Layer_1" xmlns="http://www.w3.org/2000/svg" xmlns:xlink="http://www.w3.org/1999/xlink" x="0px" y="0px"
	 width="13.711px" height="13.711px" viewBox="0 0 13.711 13.711" enable-background="new 0 0 13.711 13.711" xml:space="preserve">
<path fill="#E5B300" d="M13.711,11.14c0,1.419-1.151,2.571-2.571,2.571H2.57C1.151,13.711,0,12.56,0,11.14V2.571
	C0,1.151,1.151,0,2.57,0h8.569c1.42,0,2.571,1.151,2.571,2.571V11.14z M11.595,4.972c0.224-0.223,0.224-0.581,0-0.804l-0.91-0.91
	c-0.223-0.223-0.58-0.223-0.804,0L5.713,7.427L3.829,5.543c-0.223-0.223-0.58-0.223-0.804,0l-0.91,0.91
	c-0.223,0.223-0.223,0.581,0,0.804l3.195,3.195c0.224,0.223,0.581,0.223,0.804,0L11.595,4.972z"/>
</svg>
